# xmcd
#
# Track frame offsets:
#	150
#	16018
#	31425
#	63095
#
# Disc length: 1222 seconds
#
# Revision: 0
# Processed by: cddbd v1.5.1PL0 Copyright (c) Steve Scherf et al.
# Submitted via: audiograbber 1.82.02
#
DISCID=2304c404
DTITLE=Milk Inc. - In My Eyes
DYEAR=1999
DGENRE=Trance
TTITLE0=In My Eyes [Radio Edit]
TTITLE1=In My Eyes [Euro Radio Edit]
TTITLE2=In My Eyes [DJ Philip Remix]
TTITLE3=In My Eyes [Club Edit]
EXTD=
EXTT0=
EXTT1=
EXTT2=
EXTT3=
PLAYORDER=
